<svg width="1440" height="749" viewBox="0 0 1440 749" fill="none" xmlns="http://www.w3.org/2000/svg">
<mask id="mask0_112_12446" style="mask-type:alpha" maskUnits="userSpaceOnUse" x="0" y="0" width="1440" height="749">
<rect width="1440" height="748.627" fill="#004CA1"/>
</mask>
<g mask="url(#mask0_112_12446)">
<g opacity="0.4">
<path d="M25.1083 527.259H81.726V592.824L94.031 818.335H11.9557L25.1083 592.824V527.259Z" fill="url(#paint0_linear_112_12446)"/>
<path fill-rule="evenodd" clip-rule="evenodd" d="M25.1149 446.309H28.342C32.2666 446.309 35.7388 448.852 36.9227 452.594L49.6936 492.955H73.5189C78.0476 492.955 81.7189 496.626 81.7189 501.155H52.2882L54.267 507.409H77.7188C79.928 507.409 81.7188 509.2 81.7188 511.409V521.902H25.1149V521.901V507.409V446.309Z" fill="#006EE3"/>
<path d="M541.27 812.731H594.264V685.378H541.27V812.731Z" fill="#006EE3"/>
<path d="M578.624 759.488H582.831V704.042H578.624V759.488Z" fill="#0B5DB6"/>
<path d="M570.21 759.488H574.417V704.042H570.21V759.488Z" fill="#0B5DB6"/>
<path d="M561.795 759.488H566.003V704.042H561.795V759.488Z" fill="#0B5DB6"/>
<path d="M553.381 759.488H557.588V704.042H553.381V759.488Z" fill="#0B5DB6"/>
<path d="M490.846 812.73H543.84V645.422H490.846V812.73Z" fill="#006EE3"/>
<path d="M528.137 727.43H532.345V663.454H528.137V727.43Z" fill="#0B5DB6"/>
<path d="M519.722 727.43H523.929V663.454H519.722V727.43Z" fill="#0B5DB6"/>
<path d="M511.308 727.43H515.515V663.454H511.308V727.43Z" fill="#0B5DB6"/>
<path d="M502.894 727.43H507.101V663.454H502.894V727.43Z" fill="#0B5DB6"/>
<path d="M-0.000484467 814.476H52.993L52.993 619.845H-0.000484467L-0.000484467 814.476Z" fill="#006EE3"/>
<path d="M37.3535 687.404H41.5608L41.5608 631.958H37.3535L37.3535 687.404Z" fill="#0B5DB6"/>
<path d="M28.9393 687.404H33.1466L33.1466 631.958H28.9393L28.9393 687.404Z" fill="#0B5DB6"/>
<path d="M20.525 687.404H24.7323L24.7323 631.958H20.525L20.525 687.404Z" fill="#0B5DB6"/>
<path d="M12.1108 687.404H16.3181L16.3181 631.958H12.1108L12.1108 687.404Z" fill="#0B5DB6"/>
<path d="M913.545 798.831H976.134V579.065H913.545V798.831Z" fill="#006EE3"/>
<path d="M958.151 637.885H963.038V592.561H958.151V637.885Z" fill="#0B5DB6"/>
<path d="M948.376 637.885H953.263V592.561H948.376V637.885Z" fill="#0B5DB6"/>
<path d="M938.603 637.885H943.49V592.561H938.603V637.885Z" fill="#0B5DB6"/>
<path d="M928.829 637.885H933.716V592.561H928.829V637.885Z" fill="#0B5DB6"/>
<path d="M987.045 812.73H1037.6V530.556L987.045 511.111V812.73Z" fill="#006EE3"/>
<path d="M229.598 831.946H280.15L280.15 548.27C280.15 547.445 279.643 546.705 278.874 546.406L232.322 528.317C231.011 527.808 229.598 528.775 229.598 530.181L229.598 831.946Z" fill="#006EE3"/>
<path d="M999.589 560.963L999.589 565.917L1025.05 565.917L1025.05 560.963L999.589 560.963Z" fill="#0B5DB6"/>
<path d="M999.589 551.056L999.589 556.01L1025.05 556.01L1025.05 551.056L999.589 551.056Z" fill="#0B5DB6"/>
<path d="M764.636 812.73H818.518V605.778H764.636V812.73Z" fill="#006EE3"/>
<path d="M803.037 677.915H807.244V622.469H803.037V677.915Z" fill="#0B5DB6"/>
<path d="M794.621 677.915H798.829V622.469H794.621V677.915Z" fill="#0B5DB6"/>
<path d="M786.207 677.915H790.415V622.469H786.207V677.915Z" fill="#0B5DB6"/>
<path d="M777.793 677.915H782.001V622.469H777.793V677.915Z" fill="#0B5DB6"/>
<path d="M827.555 812.343H871.076V634.415H827.555V812.343Z" fill="#006EE3"/>
<path d="M853.522 706.443H857.73V646.732H853.522V706.443Z" fill="#0B5DB6"/>
<path d="M845.108 706.443H849.315V646.732H845.108V706.443Z" fill="#0B5DB6"/>
<path d="M836.693 706.443H840.9V646.732H836.693V706.443Z" fill="#0B5DB6"/>
<path d="M999.589 541.148L999.589 546.103L1025.05 546.103L1025.05 541.148L999.589 541.148Z" fill="#0B5DB6"/>
<path d="M742.527 537.592L778.605 559.04L710.806 559.04L742.527 537.592Z" fill="#0B5DB6"/>
<path d="M697.607 798.831L710.002 561.533H765.163V798.831H697.607Z" fill="#0B5DB6"/>
<path d="M778.798 561.533H765.162V798.831H789.954L778.798 561.533Z" fill="#157DEE"/>
<path opacity="0.7" d="M755.966 597.334H734.789V606.809H755.966V597.334Z" fill="#338DEE"/>
<path opacity="0.7" d="M755.966 616.28H727.73V625.754H755.966V616.28Z" fill="#338DEE"/>
<path opacity="0.7" d="M755.966 635.229H724.2V644.703H755.966V635.229Z" fill="#338DEE"/>
<path opacity="0.7" d="M755.966 654.177H720.671V663.652H755.966V654.177Z" fill="#338DEE"/>
<path opacity="0.7" d="M755.966 673.125H717.141V682.6H755.966V673.125Z" fill="#338DEE"/>
<path opacity="0.7" d="M755.966 692.075H713.612V701.549H755.966V692.075Z" fill="#338DEE"/>
<path d="M769.516 692.075H780.24V701.549H769.516V692.075Z" fill="#0B5DB6"/>
<path d="M769.516 673.125H778.605V682.6H769.516V673.125Z" fill="#0B5DB6"/>
<path d="M769.516 653.896H777.154V663.37H769.516V653.896Z" fill="#0B5DB6"/>
<path opacity="0.7" d="M755.966 711.025H710.083V720.5H755.966V711.025Z" fill="#338DEE"/>
<path d="M769.516 711.025H781.942V720.5H769.516V711.025Z" fill="#0B5DB6"/>
<path d="M1309.75 798.831H1353.27V579.065H1309.75V798.831Z" fill="#006EE3"/>
<path d="M1338.54 641.146H1342.74V590.167H1338.54V641.146Z" fill="#0B5DB6"/>
<path d="M1330.12 641.146H1334.33V590.167H1330.12V641.146Z" fill="#0B5DB6"/>
<path d="M1321.71 641.146H1325.91V590.167H1321.71V641.146Z" fill="#0B5DB6"/>
<path d="M1362.36 798.832H1405.89V611.689H1362.36V798.832Z" fill="#006EE3"/>
<path d="M1386.95 797.613H1430.47V704.042H1386.95V797.613Z" fill="#006EE3"/>
<path d="M1391.16 650.443H1395.36V625.666H1391.16V650.443Z" fill="#0B5DB6"/>
<path d="M1382.74 650.443H1386.95V625.666H1382.74V650.443Z" fill="#0B5DB6"/>
<path d="M1374.33 650.443H1378.53V625.666H1374.33V650.443Z" fill="#0B5DB6"/>
<path d="M350.081 453.104L292.183 452.93L291.062 835.764L348.96 835.938L350.081 453.104Z" fill="url(#paint1_linear_112_12446)"/>
<path d="M343.475 433.907L298.887 433.773L298.847 447.157L343.435 447.291L343.475 433.907Z" fill="#006EE3"/>
<path d="M338.2 416.795L304.925 416.695L304.885 430.08L338.161 430.18L338.2 416.795Z" fill="#006EE3"/>
<path d="M333.926 399.683L309.304 399.609L309.264 412.993L333.887 413.067L333.926 399.683Z" fill="#006EE3"/>
<path d="M325.399 358.765L318.076 358.743L317.972 394.431L325.295 394.453L325.399 358.765Z" fill="#006EE3"/>
<path d="M419.958 453.091L362.06 452.917L360.946 833.448L418.844 833.622L419.958 453.091Z" fill="url(#paint2_linear_112_12446)"/>
<path d="M413.353 433.894L368.765 433.76L368.725 447.145L413.313 447.279L413.353 433.894Z" fill="#006EE3"/>
<path d="M408.084 416.783L374.808 416.683L374.769 430.068L408.044 430.168L408.084 416.783Z" fill="#006EE3"/>
<path d="M403.811 399.667L379.188 399.593L379.149 412.978L403.771 413.052L403.811 399.667Z" fill="#006EE3"/>
<path d="M395.277 358.753L387.954 358.731L387.85 394.418L395.173 394.44L395.277 358.753Z" fill="#006EE3"/>
<path d="M465.086 580.476C463.023 572.916 455.658 548.276 455.658 548.276C435.8 485.477 423.35 478.916 422.425 478.452C421.265 477.867 417.237 477.277 417.237 477.277V580.597L419.801 580.294L418.995 581.657H421.445L421.478 582.904H418.331V584.962H421.532L421.559 585.989H418.326V588.047H421.614L421.641 589.079H418.326V591.138H421.701L421.728 592.164H418.326V594.222H421.782L421.831 596.06H421.63V600.171H421.946L423.579 659.152V662.501H423.671L426.213 798.83H487.596C487.596 798.83 491.248 676.49 465.07 580.471L465.086 580.476Z" fill="#157DEE"/>
<path d="M418.017 702.142H417.304V706.259H418.017V702.142Z" fill="#338DEE"/>
<path d="M424.104 702.142H423.396V706.259H424.104V702.142Z" fill="#338DEE"/>
<path d="M424.104 680.228H423.396V684.339H424.104V680.228Z" fill="#338DEE"/>
<path d="M418.316 680.228H417.608V684.339H418.316V680.228Z" fill="#338DEE"/>
<path d="M418.267 636.974H417.56V641.091H418.267V636.974Z" fill="#338DEE"/>
<path d="M418.267 615.12H417.56V619.236H418.267V615.12Z" fill="#338DEE"/>
<path d="M418.316 658.32H417.608V662.437H418.316V658.32Z" fill="#338DEE"/>
<path d="M411.931 724.309H411.218V728.425H411.931V724.309Z" fill="#338DEE"/>
<path d="M418.017 724.309H417.304V728.425H418.017V724.309Z" fill="#338DEE"/>
<path d="M424.104 724.309H423.396V728.425H424.104V724.309Z" fill="#338DEE"/>
<path d="M425.489 548.414V545.197C425.489 545.197 432.337 543.961 432.337 538.255V535.788H401.592V538.255C401.592 538.255 403.268 544.645 409.659 544.645V548.414H406.246C406.295 548.32 406.322 548.276 406.322 548.276H400.438C400.438 548.276 390.781 564.009 373.682 648.523C371.902 657.33 370.367 665.437 369.055 672.903C368.516 675.828 368.223 677.478 368.223 677.478C368.223 677.478 368.304 677.086 368.457 676.358C366.965 685.027 365.773 692.786 364.826 699.723C358.168 743.02 362.098 799.513 362.098 799.513H433.627L433.627 548.414H425.489Z" fill="#0B5DB6"/>
<path opacity="0.7" d="M426.715 579.065H402.578V587.221H426.715V579.065Z" fill="#338DEE"/>
<path opacity="0.7" d="M426.716 595.375H394.532V603.531H426.716V595.375Z" fill="#338DEE"/>
<path opacity="0.7" d="M426.715 611.688H390.509V619.844H426.715V611.688Z" fill="#338DEE"/>
<path opacity="0.7" d="M426.716 628.001H386.486V636.157H426.716V628.001Z" fill="#338DEE"/>
<path opacity="0.7" d="M426.715 644.313H382.463V652.47H426.715V644.313Z" fill="#338DEE"/>
<path opacity="0.7" d="M426.715 660.626H378.44V668.783H426.715V660.626Z" fill="#338DEE"/>
<path opacity="0.7" d="M426.716 676.942H374.417V685.098H426.716V676.942Z" fill="#338DEE"/>
<path d="M432.121 705.667H364.62V712.841H432.121V705.667Z" fill="#338DEE"/>
<path d="M438.784 579.065H458.899V587.221H438.784V579.065Z" fill="#0B5DB6"/>
<path d="M438.784 595.375H462.922V603.531H438.784V595.375Z" fill="#0B5DB6"/>
<path d="M438.786 611.688H466.946V619.845H438.786V611.688Z" fill="#0B5DB6"/>
<path d="M438.785 628H470.969V636.157H438.785V628Z" fill="#0B5DB6"/>
<path d="M438.785 644.313H470.969V652.47H438.785V644.313Z" fill="#0B5DB6"/>
<path d="M438.785 660.626H474.991V668.783H438.785V660.626Z" fill="#0B5DB6"/>
<path d="M438.785 676.942H479.015V685.098H438.785V676.942Z" fill="#0B5DB6"/>
<path d="M143.323 822.775L119.607 822.711L120.318 467.909L139.59 467.966L143.323 822.775Z" fill="url(#paint3_linear_112_12446)"/>
<path d="M165 426.407L94.7726 426.222L94.755 432.966L164.983 433.151L165 426.407Z" fill="#006EE3"/>
<path d="M152.587 415.991L108.022 415.873L108.003 423.392L152.567 423.51L152.587 415.991Z" fill="#006EE3"/>
<path d="M100.011 444.197L159.722 444.355L159.741 436.836L100.031 436.677L100.011 444.197Z" fill="#006EE3"/>
<path d="M107.102 453.829L151.667 453.947L151.686 446.427L107.121 446.309L107.102 453.829Z" fill="#006EE3"/>
<path d="M113.034 464.004L145.75 464.09L145.77 456.571L113.054 456.484L113.034 464.004Z" fill="#006EE3"/>
<path d="M140.973 408.113L119.616 408.056L119.601 413.814L140.958 413.87L140.973 408.113Z" fill="#006EE3"/>
<path d="M132.083 349.235L128.595 349.226L128.449 406.021L131.936 406.03L132.083 349.235Z" fill="#006EE3"/>
<path fill-rule="evenodd" clip-rule="evenodd" d="M588.859 600.549C589.292 584.727 599.252 570.739 614.061 565.154L627.205 560.197C627.916 559.929 628.7 559.929 629.411 560.197L642.555 565.154C657.365 570.739 667.325 584.727 667.757 600.549C667.854 604.093 667.313 607.625 666.16 610.977L661.078 625.754H595.538L590.456 610.978C589.303 607.625 588.762 604.093 588.859 600.549ZM521.825 638.968C521.825 634.35 524.529 630.16 528.737 628.259L529.308 628.001L529.878 628.259C534.086 630.16 536.79 634.35 536.79 638.968L535.638 646.553H522.977L521.825 638.968ZM658.061 643.437H667.965V631.006H583.405V643.437H593.308V665.637H587.896L589.048 658.052C589.048 653.434 586.344 649.244 582.136 647.342L581.566 647.085L580.995 647.342C576.787 649.244 574.083 653.434 574.083 658.052L575.235 665.637H569.64V700.352H681.73V665.637H676.134L677.286 658.052C677.286 653.434 674.582 649.244 670.374 647.342L669.803 647.085L669.233 647.342C665.025 649.244 662.321 653.434 662.321 658.052L663.473 665.637H658.061V643.437ZM539.139 700.353H712.23V734.045L753.724 734.045V767.737H502.893V734.045L539.139 734.045V700.353ZM552.202 682.058C547.994 683.96 545.29 688.149 545.29 692.767L546.442 700.352H559.103L560.255 692.767C560.255 688.149 557.551 683.96 553.343 682.058L552.773 681.8L552.202 682.058ZM691.114 692.767C691.114 688.149 693.819 683.96 698.026 682.058L698.597 681.8L699.167 682.058C703.375 683.96 706.079 688.149 706.079 692.767L704.927 700.352H692.267L691.114 692.767Z" fill="url(#paint4_linear_112_12446)"/>
<path d="M117.039 694.419C116.816 692.411 118.601 690.762 120.585 691.142L142.115 695.268L163.909 670.863C165.897 668.637 169.38 668.637 171.368 670.863L193.162 695.268L205.924 692.822L214.691 691.142C216.675 690.762 218.46 692.411 218.238 694.419L217.65 699.721C217.029 705.33 215.563 710.812 213.303 715.983L208.929 725.988H126.347L121.973 715.983C119.713 710.812 118.248 705.33 117.626 699.721L117.039 694.419Z" fill="#006EE3"/>
<rect x="52.9932" y="725.988" width="1333.93" height="88.4878" fill="#006EE3"/>
<path d="M237.433 578.1L237.433 583.054L272.315 583.054L272.315 578.1L237.433 578.1Z" fill="#0B5DB6"/>
<path d="M237.433 568.192L237.433 573.146L272.315 573.146L272.315 568.192L237.433 568.192Z" fill="#0B5DB6"/>
<path d="M237.433 558.285L237.433 563.239L272.315 563.239L272.315 558.285L237.433 558.285Z" fill="#0B5DB6"/>
<path d="M1300.66 541.417L1211.43 541.148L1210.69 793.112L1299.92 793.38L1300.66 541.417Z" fill="url(#paint5_linear_112_12446)"/>
<path d="M943.468 498.015L885.57 497.841L884.659 809.228L942.557 809.402L943.468 498.015Z" fill="url(#paint6_linear_112_12446)"/>
<path d="M929.886 486.942L898.251 486.847L898.214 499.781L929.848 499.876L929.886 486.942Z" fill="#006EE3"/>
<path d="M918.8 470.939L898.163 470.877L898.084 497.778L918.722 497.84L918.8 470.939Z" fill="#006EE3"/>
<path d="M890.258 436.844L888.854 436.822L885.727 494.121L893.05 494.143L890.258 436.844Z" fill="#006EE3"/>
<path d="M940.53 451.285L939.126 451.263L936.041 494.122L943.364 494.144L940.53 451.285Z" fill="#006EE3"/>
<path d="M915.395 423.73L914.977 423.708L910.905 466.567L918.228 466.589L915.395 423.73Z" fill="#006EE3"/>
<path d="M1259.31 514.376L1257.55 466.132C1257.51 465.192 1256.74 464.446 1255.8 464.439C1254.86 464.433 1254.08 465.176 1254.04 466.121L1251.99 514.354L1259.31 514.376Z" fill="#006EE3"/>
<path d="M1295.07 519.876L1216.31 519.639L1216.26 537.074L1295.02 537.311L1295.07 519.876Z" fill="#006EE3"/>
<path d="M1033.22 702.208L1192.35 656.963V767.724H1033.22L1033.22 702.208Z" fill="#006EE3"/>
<rect x="1131.43" y="645.501" width="64.141" height="147.879" fill="#006EE3"/>
<rect x="1193.25" y="725.988" width="64.141" height="83.4136" fill="#006EE3"/>
<rect x="1375.86" y="735.462" width="64.141" height="79.0137" fill="#006EE3"/>
<rect x="1131.43" y="607.65" width="52.1446" height="37.8057" fill="#006EE3"/>
</g>
</g>
<defs>
<linearGradient id="paint0_linear_112_12446" x1="53.4171" y1="527.259" x2="53.4172" y2="818.335" gradientUnits="userSpaceOnUse">
<stop stop-color="#006EE3"/>
<stop offset="1" stop-color="#006EE3" stop-opacity="0"/>
</linearGradient>
<linearGradient id="paint1_linear_112_12446" x1="321.132" y1="453.017" x2="319.98" y2="835.851" gradientUnits="userSpaceOnUse">
<stop stop-color="#006EE3"/>
<stop offset="1" stop-color="#006EE3" stop-opacity="0"/>
</linearGradient>
<linearGradient id="paint2_linear_112_12446" x1="391.009" y1="453.004" x2="389.864" y2="833.535" gradientUnits="userSpaceOnUse">
<stop stop-color="#006EE3"/>
<stop offset="1" stop-color="#006EE3" stop-opacity="0"/>
</linearGradient>
<linearGradient id="paint3_linear_112_12446" x1="131.465" y1="467.909" x2="131.465" y2="822.775" gradientUnits="userSpaceOnUse">
<stop offset="0.110568" stop-color="#006EE3"/>
<stop offset="1" stop-color="#006EE3" stop-opacity="0"/>
</linearGradient>
<linearGradient id="paint4_linear_112_12446" x1="625.374" y1="639.564" x2="628.389" y2="777.774" gradientUnits="userSpaceOnUse">
<stop stop-color="#006EE3"/>
<stop offset="1" stop-color="#006EE3" stop-opacity="0"/>
</linearGradient>
<linearGradient id="paint5_linear_112_12446" x1="1256.04" y1="541.283" x2="1255.28" y2="793.246" gradientUnits="userSpaceOnUse">
<stop stop-color="#006EE3"/>
<stop offset="1" stop-color="#006EE3" stop-opacity="0"/>
</linearGradient>
<linearGradient id="paint6_linear_112_12446" x1="914.519" y1="497.928" x2="913.583" y2="809.315" gradientUnits="userSpaceOnUse">
<stop stop-color="#006EE3"/>
<stop offset="1" stop-color="#006EE3" stop-opacity="0"/>
</linearGradient>
</defs>
</svg>
